<svg width="109" height="49" viewBox="0 0 109 49" fill="none" xmlns="http://www.w3.org/2000/svg">
<path d="M84.3373 4.51916C81.7829 4.02075 79.1099 4.25162 76.5191 4.25162C66.7243 4.25162 56.8754 4.56286 47.0895 4.13271C41.8593 3.90282 36.6295 3.5526 31.3937 3.46386C27.9069 3.40476 24.2679 3.18469 20.8109 3.71654C16.68 4.35206 12.0268 4.89059 8.90528 8.01208C5.67477 11.2426 2.72582 15.0657 1.51814 19.561C0.0056476 25.1908 1.16756 29.7013 5.73936 33.4137C19.6782 44.7325 38.5212 44.6505 55.5914 44.6505C67.1378 44.6505 78.616 42.8745 89.7476 39.8347C95.1507 38.3592 101.615 37.3928 106.38 34.2163C108.219 32.9899 108.416 31.1309 108.416 29.0736C108.416 24.3494 107.563 20.6 104.135 17.0936C100.723 13.6026 96.4524 11.7032 92.2001 9.43897C86.4067 6.35419 80.5281 3.27575 74.0369 1.97751C71.103 1.39072 67.8001 1.07296 64.8067 1.04112C59.5631 0.985334 54.1943 0.754337 48.9623 1.10057C39.3793 1.73474 29.9126 4.18407 20.6623 6.6595C16.0094 7.90464 11.9645 11.8076 9.84167 16.0532C8.86066 18.0152 8.82326 20.8902 8.89041 23.039C8.94334 24.7329 10.0038 26.2427 10.7038 27.7359C11.5752 29.5951 12.6752 31.4061 13.7656 33.1462C18.6487 40.9383 27.7434 44.6742 36.3283 46.5233C42.7728 47.9113 49.4272 47.7391 55.9778 47.9204C64.9473 48.1687 74.1856 48.7214 83.0888 47.311C90.8936 46.0746 100.164 44.4949 105.414 37.9619C107.234 35.6969 107.06 32.2622 106.246 29.6384C104.545 24.1578 101.281 18.7598 97.3428 14.5966C94.6579 11.7582 90.7063 9.65451 87.1911 8.05667C85.2977 7.19604 83.2398 6.12442 81.1268 6.12442" stroke="black" stroke-linecap="round" stroke-linejoin="round"/>
</svg>
