<svg width="265" height="13" viewBox="0 0 265 13" fill="none" xmlns="http://www.w3.org/2000/svg">
<path d="M41.4134 2.31583C84.1999 2.31583 126.927 2.43657 169.693 4.05744C193.07 4.94344 216.452 4.97538 239.843 4.88542C247.275 4.85683 254.68 4.3715 262.112 4.3715C267.526 4.3715 259.704 3.85758 258.115 3.85758C246.914 3.85758 236.098 4.74509 224.996 6.31296C207.614 8.76768 190.105 10.2005 172.548 10.4814C157.942 10.7151 143.33 10.4252 128.722 10.5671C116.457 10.6861 104.217 11.5265 91.9486 11.5663C83.098 11.5951 74.2469 11.5663 65.3962 11.5663C59.7044 11.5663 53.9738 11.8152 48.3513 10.7669C43.8336 9.92464 40.0385 8.79752 46.3813 6.94108C53.6693 4.80801 61.4413 4.18701 68.9936 3.97178C87.7868 3.43623 106.639 3.85758 125.439 3.85758C153.956 3.85758 182.298 5.88697 210.778 6.82688C218.045 7.06671 225.32 7.38407 232.591 7.455C238.337 7.51106 244.311 7.47117 249.95 8.7398C250.898 8.95324 254.26 9.51067 251.234 9.51067C239.341 9.51067 227.462 9.54141 215.574 9.05386C187.297 7.89409 159.087 6.30337 130.778 6.02745C101.963 5.74661 73.1415 5.91325 44.3256 5.91325C32.9043 5.91325 21.0278 6.65244 9.69329 4.85686C6.75923 4.39206 3.52238 3.71298 0.813937 2.43003C0.0541552 2.07014 2.92001 2.31583 3.04091 2.31583C12.9416 2.31583 22.8122 2.25014 32.7054 1.77336C78.6643 -0.44153 124.641 1.59556 170.578 3.45787C184.146 4.00793 197.692 4.80722 211.235 5.79905C216.628 6.19408 222.496 6.08833 227.823 7.19804C228.036 7.24239 228.64 7.44776 228.422 7.455C227.124 7.49829 225.808 7.455 224.511 7.455C212.748 7.455 201.002 7.43963 189.25 6.82688C167.34 5.68445 145.46 4.02272 123.526 3.34366C104.96 2.76887 86.0221 1.9089 67.4804 3.40076C59.4246 4.04894 51.0202 6.42717 42.9552 6.42717C30.7879 6.42717 67.2764 5.52885 79.4433 5.42788C119.935 5.09185 160.393 5.80013 200.842 3.45787C211.298 2.85238 242.693 1.80191 232.22 1.80191C215.901 1.80191 199.429 5.50067 183.197 6.82688C145.785 9.88365 107.892 12.3726 70.3355 11.5092C64.3046 11.3706 58.3624 10.6896 52.377 10.0246C51.7244 9.95208 49.2389 9.51087 51.2349 8.99675C57.2607 7.44466 63.9406 7.40841 70.0786 6.48427C87.1981 3.90672 104.456 1.41943 121.784 0.88828C134.092 0.511046 146.503 0.574672 158.815 0.831178C169.658 1.05708 180.329 2.69405 191.135 3.22946C196.381 3.4894 202.807 2.72597 207.666 4.88542C208.43 5.22503 206.046 5.39933 205.21 5.39933C194.18 5.39933 183.149 5.4476 172.12 5.39933C143.671 5.27483 115.355 1.80191 86.8951 1.80191C78.4155 1.80191 69.9358 1.80191 61.4562 1.80191" stroke="black" stroke-linecap="round" stroke-linejoin="round"/>
</svg>
